<svg width="67" height="32" viewBox="0 0 67 32" fill="none" xmlns="http://www.w3.org/2000/svg">
<path d="M16 26.6667C21.8911 26.6667 26.6667 21.891 26.6667 16C26.6667 10.1089 21.8911 5.33325 16 5.33325C10.109 5.33325 5.33331 10.1089 5.33331 16C5.33331 21.891 10.109 26.6667 16 26.6667Z" fill="#0B0B0B"/>
<path fill-rule="evenodd" clip-rule="evenodd" d="M16.022 22.0007C19.5168 22.0007 23.6929 19.8247 23.6929 15.9342H24.0666C23.9787 20.3742 20.4399 23.9789 16.022 23.9789C11.626 23.9789 8.06528 20.3961 7.97736 16.0661C7.99026 15.4047 8.07563 14.7613 8.22617 14.1448C8.08042 13.792 8 13.4054 8 13C8 11.4752 9.13761 10.2161 10.6104 10.0251C12.0221 8.69938 13.9057 7.88965 16.022 7.88965C18.9453 7.88965 21.5169 9.42824 22.9896 11.9119H21.7807C20.2421 10.5052 18.0661 9.86783 16.022 9.86783C14.868 9.86783 13.6991 10.0669 12.6269 10.479C13.4532 11.0133 14 11.9428 14 13C14 14.6569 12.6569 16 11 16C9.96421 16 9.05103 15.4751 8.51196 14.6767C8.40366 15.0842 8.35102 15.5034 8.35102 15.9342C8.35102 19.8467 12.5492 22.0007 16.022 22.0007Z" fill="white"/>
<path d="M33.6398 24.2421C37.0195 24.2421 39.2284 21.7678 39.2284 18.0602C39.2284 14.3293 37.0195 11.855 33.6398 11.855C30.26 11.855 28.0511 14.3293 28.0511 18.0602C28.0511 21.7678 30.26 24.2421 33.6398 24.2421ZM33.6476 22.2829C31.4386 22.2829 30.4083 20.355 30.4083 18.0524C30.4083 15.7577 31.4386 13.8063 33.6476 13.8063C35.8409 13.8063 36.8712 15.7577 36.8712 18.0524C36.8712 20.355 35.8409 22.2829 33.6476 22.2829ZM45.8834 24.2421C48.7168 24.2421 50.551 22.5405 50.8086 20.2067H48.5372C48.2406 21.5024 47.2338 22.2673 45.899 22.2673C43.9243 22.2673 42.652 20.6204 42.652 18.0056C42.652 15.4377 43.9477 13.822 45.899 13.822C47.3821 13.822 48.2875 14.7586 48.5372 15.8826H50.8086C50.5588 13.4629 48.5841 11.855 45.86 11.855C42.4803 11.855 40.2948 14.3995 40.2948 18.0602C40.2948 21.6741 42.4023 24.2421 45.8834 24.2421ZM57.3544 24.2421C60.7341 24.2421 62.943 21.7678 62.943 18.0602C62.943 14.3293 60.7341 11.855 57.3544 11.855C53.9747 11.855 51.7658 14.3293 51.7658 18.0602C51.7658 21.7678 53.9747 24.2421 57.3544 24.2421ZM57.3622 22.2829C55.1533 22.2829 54.123 20.355 54.123 18.0524C54.123 15.7577 55.1533 13.8063 57.3622 13.8063C59.5555 13.8063 60.5858 15.7577 60.5858 18.0524C60.5858 20.355 59.5555 22.2829 57.3622 22.2829Z" fill="black"/>
</svg>
